<?xml version="1.0" encoding="UTF-8"?>
<svg id="Layer_2" data-name="Layer 2" xmlns="http://www.w3.org/2000/svg" viewBox="0 0 84.11 92.5">
  <g id="Layer_1-2" data-name="Layer 1">
    <path d="M6.88,30.83c2.98,2.21,6.51,3.37,10.16,3.37.84,0,1.69-.06,2.54-.19,2.76-.41,5.33-1.47,7.53-3.06l18.72,21.64v23.19c-9.61.64-18.55,3.5-18.55,8.29,0,5.47,11.69,8.43,22.69,8.43s22.69-2.95,22.69-8.43c0-4.79-8.95-7.65-18.55-8.29v-23.19l29.08-33.61c.19-.17.34-.35.46-.52.36-.52.46-1.01.46-1.37,0-6.67-32.74-6.75-34.13-6.75-6.01,0-11.81.27-16.86.78C30.36,3.73,22.73-1.01,14.6.19,5.28,1.56-1.18,10.28.18,19.61c.67,4.52,3.06,8.51,6.72,11.23h-.02ZM51.59,52.13v30.25c-.72.29-2.54.29-3.27,0v-30.25c0-.3-.11-.59-.3-.82l-25.96-30c2.82.73,6.2,1.24,9.12,1.57l.92.09c.66.07,1.33.14,2.02.2,4.8.45,10.23.68,15.84.68,6.67,0,13.17-.34,18.8-.98,2.91-.34,6.28-.84,9.1-1.57l-25.96,30c-.2.23-.3.52-.3.82h-.01ZM8.63,12.38l5.27,3.92-6.5.96c-.03-1.71.39-3.38,1.23-4.88h0ZM26.37,14.45l-6.5.96,3.92-5.27c1.23,1.19,2.12,2.66,2.59,4.31h-.01ZM7.76,19.74l6.5-.96-3.92,5.28c-1.2-1.16-2.11-2.63-2.59-4.32h.01ZM16.27,20.27l.96,6.51c-1.75.03-3.42-.42-4.88-1.23l3.92-5.28h0ZM17.86,13.93l-.96-6.49c.06,0,.12-.01.19-.01,1.65,0,3.25.43,4.69,1.23l-3.92,5.27ZM15.39,14.29l-5.27-3.91c1.19-1.23,2.67-2.12,4.31-2.58l.96,6.49ZM19.71,26.41l-.71-4.81,3.21,3.71c-.77.48-1.61.85-2.5,1.1h0ZM26.74,16.93c.02.94-.1,1.86-.34,2.75-3.45-.6-5.45-1.23-6.59-1.72l6.93-1.02h0ZM42.39,21.22c-.44-.02-.87-.04-1.3-.06-.29-.01-.57-.03-.86-.04-.42-.02-.84-.05-1.26-.07-.28-.02-.56-.03-.84-.05-.42-.03-.83-.06-1.24-.09-.27-.02-.54-.04-.8-.06-.41-.03-.81-.07-1.21-.1-.26-.02-.52-.05-.77-.07-.1,0-.2-.02-.31-.03,0-.04.01-.09.02-.13.15-.75.26-1.5.31-2.26v-.02c.02-.26.02-.52.02-.79v-.52c0-.43-.03-.87-.07-1.3-.02-.17-.03-.35-.05-.52-.02-.16-.02-.32-.05-.49-.03-.22-.09-.43-.13-.64-.02-.13-.03-.26-.06-.4,4.88-.47,10.43-.72,16.16-.72,19.27,0,30.42,2.67,31.58,4.24l-.11.11c-.52.46-3,2.04-12.95,3.19-5.54.63-11.94.96-18.51.96-.76,0-1.51,0-2.26-.01-.24,0-.48,0-.72-.01-.51,0-1.01-.02-1.51-.03-.28,0-.56-.02-.84-.02-.46-.01-.91-.03-1.36-.04-.29-.01-.58-.02-.87-.03h0Z"/>
    <path d="M65.19,27.77c-.1.03-9.89,2.63-16.62.9-11.44-2.93-14.49-1.07-14.98-.67-.26.22-.43.53-.46.87-.03.34.08.67.31.93l15.53,17.56c.25.28.59.42.94.42h.08c.35,0,.69-.14.94-.42l15.53-17.56c.37-.41.42-1.02.13-1.49-.29-.47-.85-.69-1.39-.55h0Z"/>
  </g>
</svg>